<svg xmlns="http://www.w3.org/2000/svg" width="27" height="68" viewBox="0 0 27 68" fill="none">
                    <g clip-path="url(#clip0_103_134)">
                      <path d="M23.3182 7.55556H3.68182C2.70534 7.55556 1.76885 7.95357 1.07838 8.66204C0.387905 9.37051 0 10.3314 0 11.3333L0 59.1852C0 60.1871 0.387905 61.148 1.07838 61.8565C1.76885 62.5649 2.70534 62.963 3.68182 62.963H23.3182C24.2947 62.963 25.2311 62.5649 25.9216 61.8565C26.6121 61.148 27 60.1871 27 59.1852V11.3333C27 10.3314 26.6121 9.37051 25.9216 8.66204C25.2311 7.95357 24.2947 7.55556 23.3182 7.55556ZM25.7727 59.1852C25.772 59.8529 25.5131 60.493 25.053 60.9652C24.5928 61.4373 23.9689 61.7029 23.3182 61.7037H3.68182C3.03106 61.7029 2.40717 61.4373 1.94702 60.9652C1.48686 60.493 1.22802 59.8529 1.22727 59.1852V11.3333C1.22802 10.6656 1.48686 10.0255 1.94702 9.55332C2.40717 9.08117 3.03106 8.81558 3.68182 8.81482H6.90341C7.05684 8.80934 7.20612 8.86651 7.31853 8.9738C7.43094 9.08109 7.4973 9.22974 7.50305 9.38715V10.1634C7.51338 10.4808 7.64492 10.7814 7.8693 11.0003C8.09368 11.2192 8.39292 11.3388 8.70247 11.3333H18.2975C18.6071 11.3388 18.9063 11.2192 19.1307 11.0003C19.3551 10.7814 19.4866 10.4808 19.4969 10.1634V9.38715C19.5027 9.22974 19.5691 9.08109 19.6815 8.9738C19.7939 8.86651 19.9432 8.80934 20.0966 8.81482H23.3182C23.9689 8.81558 24.5928 9.08117 25.053 9.55332C25.5131 10.0255 25.772 10.6656 25.7727 11.3333V59.1852ZM16.8787 9.45162C16.8778 9.53266 16.8535 9.6116 16.809 9.67852C16.7644 9.74544 16.7016 9.79734 16.6283 9.8277C16.5551 9.85806 16.4748 9.86551 16.3974 9.84912C16.3201 9.83274 16.2492 9.79324 16.1937 9.73561C16.1381 9.67798 16.1005 9.60478 16.0854 9.52523C16.0703 9.44568 16.0785 9.36334 16.1089 9.28856C16.1394 9.21378 16.1907 9.1499 16.2564 9.10498C16.3222 9.06005 16.3994 9.03607 16.4783 9.03607C16.5312 9.03638 16.5835 9.04738 16.6323 9.06843C16.681 9.08949 16.7252 9.12018 16.7624 9.15877C16.7996 9.19736 16.829 9.24308 16.8489 9.29333C16.8689 9.34358 16.879 9.39737 16.8787 9.45162ZM15.4714 9.45162C15.4716 9.49273 15.464 9.53348 15.4488 9.57155C15.4337 9.60962 15.4115 9.64426 15.3833 9.6735C15.3551 9.70273 15.3216 9.72599 15.2847 9.74193C15.2478 9.75788 15.2082 9.76621 15.1681 9.76644H12.7418C12.6604 9.76644 12.5824 9.73327 12.5248 9.67423C12.4673 9.61519 12.435 9.53512 12.435 9.45162C12.435 9.36813 12.4673 9.28806 12.5248 9.22902C12.5824 9.16998 12.6604 9.13681 12.7418 9.13681H15.1681C15.249 9.13731 15.3264 9.17075 15.3833 9.22979C15.4401 9.28883 15.4718 9.36862 15.4714 9.45162Z" fill="#1D1D1F"/>
                    </g>
                    <defs>
                      <clipPath id="clip0_103_134">
                        <rect width="27" height="68" fill="white"/>
                      </clipPath>
                    </defs>
                  </svg>